<svg xmlns="http://www.w3.org/2000/svg" viewBox="0 0 1080 520" role="img" aria-labelledby="overviewTitle overviewDesc">
  <title id="overviewTitle">PersoMoni Dataset Overview</title>
  <desc id="overviewDesc">BFI-2 taxonomy, data collection pipeline, and dataset statistics</desc>
  <defs>
    <style>
      .bg { fill: #f6f7f9; }
      .panel { fill: #ffffff; stroke: #d8dee8; stroke-width: 1; }
      .title { font: 600 13px 'Source Sans 3', 'Noto Sans SC', Arial, sans-serif; fill: #1a1f2e; }
      .label { font: 500 11px 'Source Sans 3', 'Noto Sans SC', Arial, sans-serif; fill: #4a5568; }
      .small { font: 400 9.5px 'Source Sans 3', 'Noto Sans SC', Arial, sans-serif; fill: #718096; }
      .stat-num { font: 600 22px 'Source Serif 4', Georgia, serif; fill: #1e3a5f; }
      .stat-txt { font: 400 10px 'Source Sans 3', Arial, sans-serif; fill: #4a5568; }
      .tag { font: 600 9px 'Source Sans 3', Arial, sans-serif; fill: #2c5282; letter-spacing: 0.06em; }
      .node-main { fill: #1e3a5f; }
      .node-mid { fill: #edf2f7; stroke: #2c5282; stroke-width: 1; }
      .node-leaf { fill: #ffffff; stroke: #cbd5e0; stroke-width: 1; }
      .arrow { stroke: #a0aec0; stroke-width: 1.2; fill: none; marker-end: url(#arrowhead); }
      .divider { stroke: #e2e8f0; stroke-width: 1; }
    </style>
    <marker id="arrowhead" markerWidth="8" markerHeight="8" refX="6" refY="3" orient="auto">
      <path d="M0,0 L6,3 L0,6 Z" fill="#a0aec0"/>
    </marker>
  </defs>

  <rect width="1080" height="520" class="bg"/>

  <!-- Panel A -->
  <rect x="24" y="24" width="320" height="472" rx="2" class="panel"/>
  <text x="40" y="48" class="tag">(a) BFI-2 TAXONOMY</text>
  <text x="40" y="72" class="title">5 Domains, 15 Sub-traits</text>

  <rect x="124" y="92" width="120" height="30" rx="2" class="node-main"/>
  <text x="184" y="112" text-anchor="middle" style="font:600 11px Source Sans 3,Arial,sans-serif;fill:#fff">BFI-2</text>

  <!-- Domain columns -->
  <g transform="translate(40,140)">
    <g>
      <rect width="48" height="22" rx="2" class="node-mid"/><text x="24" y="15" text-anchor="middle" class="small" style="fill:#1e3a5f;font-weight:600">Extra.</text>
      <rect y="30" width="48" height="18" rx="1" class="node-leaf"/><text x="24" y="42" text-anchor="middle" class="small">Soc.</text>
      <rect y="52" width="48" height="18" rx="1" class="node-leaf"/><text x="24" y="64" text-anchor="middle" class="small">Asrt.</text>
      <rect y="74" width="48" height="18" rx="1" class="node-leaf"/><text x="24" y="86" text-anchor="middle" class="small">Energy</text>
    </g>
    <g transform="translate(56,0)">
      <rect width="48" height="22" rx="2" class="node-mid"/><text x="24" y="15" text-anchor="middle" class="small" style="fill:#1e3a5f;font-weight:600">Agree.</text>
      <rect y="30" width="48" height="18" rx="1" class="node-leaf"/><text x="24" y="42" text-anchor="middle" class="small">Comp.</text>
      <rect y="52" width="48" height="18" rx="1" class="node-leaf"/><text x="24" y="64" text-anchor="middle" class="small">Resp.</text>
      <rect y="74" width="48" height="18" rx="1" class="node-leaf"/><text x="24" y="86" text-anchor="middle" class="small">Trust</text>
    </g>
    <g transform="translate(112,0)">
      <rect width="48" height="22" rx="2" class="node-mid"/><text x="24" y="15" text-anchor="middle" class="small" style="fill:#1e3a5f;font-weight:600">Consc.</text>
      <rect y="30" width="48" height="18" rx="1" class="node-leaf"/><text x="24" y="42" text-anchor="middle" class="small">Org.</text>
      <rect y="52" width="48" height="18" rx="1" class="node-leaf"/><text x="24" y="64" text-anchor="middle" class="small">Prod.</text>
      <rect y="74" width="48" height="18" rx="1" class="node-leaf"/><text x="24" y="86" text-anchor="middle" class="small">Resp.</text>
    </g>
    <g transform="translate(168,0)">
      <rect width="48" height="22" rx="2" class="node-mid"/><text x="24" y="15" text-anchor="middle" class="small" style="fill:#1e3a5f;font-weight:600">Neg. Emo.</text>
      <rect y="30" width="48" height="18" rx="1" class="node-leaf"/><text x="24" y="42" text-anchor="middle" class="small">Anx.</text>
      <rect y="52" width="48" height="18" rx="1" class="node-leaf"/><text x="24" y="64" text-anchor="middle" class="small">Depr.</text>
      <rect y="74" width="48" height="18" rx="1" class="node-leaf"/><text x="24" y="86" text-anchor="middle" class="small">Volat.</text>
    </g>
    <g transform="translate(224,0)">
      <rect width="48" height="22" rx="2" class="node-mid"/><text x="24" y="15" text-anchor="middle" class="small" style="fill:#1e3a5f;font-weight:600">Open.</text>
      <rect y="30" width="48" height="18" rx="1" class="node-leaf"/><text x="24" y="42" text-anchor="middle" class="small">Curio.</text>
      <rect y="52" width="48" height="18" rx="1" class="node-leaf"/><text x="24" y="64" text-anchor="middle" class="small">Aesth.</text>
      <rect y="74" width="48" height="18" rx="1" class="node-leaf"/><text x="24" y="86" text-anchor="middle" class="small">Creat.</text>
    </g>
  </g>

  <line x1="184" y1="122" x2="184" y2="132" class="divider"/>
  <line x1="64" y1="132" x2="304" y2="132" class="divider"/>
  <line x1="64" y1="132" x2="64" y2="140" class="divider"/>
  <line x1="120" y1="132" x2="120" y2="140" class="divider"/>
  <line x1="176" y1="132" x2="176" y2="140" class="divider"/>
  <line x1="232" y1="132" x2="232" y2="140" class="divider"/>
  <line x1="288" y1="132" x2="288" y2="140" class="divider"/>

  <rect x="40" y="270" width="288" height="210" rx="2" fill="#edf2f7" stroke="#d8dee8"/>
  <text x="52" y="292" class="label" style="font-weight:600">Continuous Label Vector</text>
  <text x="52" y="312" class="small">20-dimensional expert-validated scores per participant</text>
  <text x="52" y="338" class="small">5 higher-order traits + 15 facet-level sub-traits</text>
  <text x="52" y="358" class="small">Dual-psychologist rating with three-stage QC</text>

  <!-- Panel B -->
  <rect x="368" y="24" width="320" height="472" rx="2" class="panel"/>
  <text x="384" y="48" class="tag">(b) DATA PIPELINE</text>
  <text x="384" y="72" class="title">Collection &amp; Processing</text>

  <g transform="translate(384,96)">
    <rect width="288" height="44" rx="2" class="node-mid"/>
    <text x="16" y="18" class="label" style="font-weight:600;fill:#1e3a5f">Semi-structured Interview</text>
    <text x="16" y="34" class="small">Licensed counselor, 20-30 min, 1080p @ 30fps</text>

    <path d="M144,44 L144,58" class="arrow"/>

    <rect y="58" width="288" height="44" rx="2" class="node-mid"/>
    <text x="16" y="76" class="label" style="font-weight:600;fill:#1e3a5f">Naturalistic Recording</text>
    <text x="16" y="92" class="small">Front-facing camera, seated posture, continuous gaze</text>

    <path d="M144,102 L144,116" class="arrow"/>

    <rect y="116" width="288" height="44" rx="2" class="node-mid"/>
    <text x="16" y="134" class="label" style="font-weight:600;fill:#1e3a5f">Face-centered Clipping</text>
    <text x="16" y="150" class="small">YOLO detection, temporal segmentation into clip units</text>

    <path d="M144,160 L144,174" class="arrow"/>

    <rect y="174" width="288" height="44" rx="2" class="node-mid"/>
    <text x="16" y="192" class="label" style="font-weight:600;fill:#1e3a5f">Expert BFI-2 Annotation</text>
    <text x="16" y="208" class="small">Independent scoring, cross-review, consensus</text>

    <path d="M144,218 L144,232" class="arrow"/>

    <rect y="232" width="288" height="44" rx="2" class="node-main"/>
    <text x="16" y="250" class="label" style="font-weight:600;fill:#fff">PersoMoni Benchmark</text>
    <text x="16" y="266" class="small" style="fill:#e2e8f0">Videos + clips + 20-dim personality labels</text>
  </g>

  <rect x="384" y="400" width="288" height="80" rx="2" fill="#edf2f7" stroke="#d8dee8"/>
  <text x="396" y="422" class="label" style="font-weight:600">Pre-interview Screening</text>
  <text x="396" y="440" class="small">SCL-90 and BFI-2 questionnaires to tailor questioning</text>
  <text x="396" y="458" class="small">Ethical approval and informed consent obtained</text>

  <!-- Panel C -->
  <rect x="712" y="24" width="344" height="472" rx="2" class="panel"/>
  <text x="728" y="48" class="tag">(c) DATASET AT A GLANCE</text>
  <text x="728" y="72" class="title">Key Statistics</text>

  <g transform="translate(728,96)">
    <rect width="150" height="72" rx="2" fill="#edf2f7" stroke="#d8dee8"/>
    <text x="16" y="36" class="stat-num">168</text>
    <text x="16" y="56" class="stat-txt">Participants</text>

    <rect x="166" width="150" height="72" rx="2" fill="#edf2f7" stroke="#d8dee8"/>
    <text x="182" y="36" class="stat-num">20K+</text>
    <text x="182" y="56" class="stat-txt">Face-aligned Clips</text>

    <rect y="88" width="150" height="72" rx="2" fill="#edf2f7" stroke="#d8dee8"/>
    <text x="16" y="124" class="stat-num">15</text>
    <text x="16" y="144" class="stat-txt">BFI-2 Sub-traits</text>

    <rect x="166" y="88" width="150" height="72" rx="2" fill="#edf2f7" stroke="#d8dee8"/>
    <text x="182" y="124" class="stat-num">20-30</text>
    <text x="182" y="144" class="stat-txt">Minutes / Interview</text>
  </g>

  <rect x="728" y="280" width="312" height="200" rx="2" fill="#ffffff" stroke="#d8dee8"/>
  <text x="740" y="304" class="label" style="font-weight:600">Compared to Prior Benchmarks</text>

  <text x="740" y="330" class="small" style="font-weight:600;fill:#718096">PRIOR</text>
  <text x="740" y="348" class="small">Short clips | Crowd labels | 5 coarse traits</text>

  <line x1="740" y1="362" x2="1028" y2="362" class="divider"/>

  <text x="740" y="382" class="small" style="font-weight:600;fill:#1e3a5f">PERSOMONI</text>
  <text x="740" y="400" class="small">Long interviews | Expert BFI-2 | 15 sub-traits</text>
  <text x="740" y="418" class="small">Ecologically valid clinical setting</text>
  <text x="740" y="444" class="small">Demographics: 86 F / 82 M, balanced age groups</text>
  <text x="740" y="462" class="small">Resolution: 1080p, 30 fps</text>
</svg>
